<svg width="1374" height="785" viewBox="0 0 1374 785" fill="none" xmlns="http://www.w3.org/2000/svg">
<rect width="1373.56" height="785" fill="#E8E8E8"/>
<path d="M251.708 446.651C354.009 446.651 436.941 521.033 436.941 612.788V624.882V785H66.4748V624.882V612.788C66.4748 521.033 149.406 446.651 251.708 446.651Z" fill="#1C2F64"/>
<path d="M408.559 633.378C454.347 633.378 491.465 666.71 491.465 707.828V713.247V785H325.652V713.247V707.828C325.652 666.71 362.77 633.378 408.559 633.378Z" fill="#5E7ED9"/>
<path d="M100.833 525.823C145.796 525.823 182.245 558.45 182.245 598.698V604.003V785H19.4196V604.003V598.698C19.4196 558.45 55.8694 525.823 100.833 525.823Z" fill="#5E7ED9"/>
<path d="M651.304 0H416.775V330.133V337.229C416.775 391.061 469.276 434.7 534.039 434.7C598.802 434.7 651.304 391.061 651.304 337.229V330.133V0Z" fill="#1E3A8A"/>
<path d="M737.198 0H565.409V241.644V246.838C565.409 286.24 603.865 318.183 651.304 318.183C698.742 318.183 737.198 286.24 737.198 246.838V241.644V0Z" fill="#3652A1"/>
<path d="M230.421 192.702C230.421 145.264 198.479 106.808 159.076 106.808L153.882 106.808L-1.81067e-06 106.808L0 278.597L153.882 278.597L159.076 278.597C198.479 278.597 230.421 240.14 230.421 192.702Z" fill="#3652A1"/>
<circle cx="36.5985" cy="244.986" r="18.6727" fill="#D9D9D9"/>
<circle cx="36.5985" cy="301.004" r="18.6727" fill="#5E7ED9"/>
<circle cx="36.5985" cy="357.022" r="18.6727" fill="#5E7ED9"/>
<circle cx="107.555" cy="244.986" r="18.6727" fill="#D9D9D9"/>
<circle cx="107.555" cy="301.004" r="18.6727" fill="#5E7ED9"/>
<circle cx="107.555" cy="357.022" r="18.6727" fill="#5E7ED9"/>
<circle cx="178.511" cy="244.986" r="18.6727" fill="#D9D9D9"/>
<circle cx="178.511" cy="301.004" r="18.6727" fill="#5E7ED9"/>
<circle cx="178.511" cy="357.022" r="18.6727" fill="#5E7ED9"/>
<circle cx="249.467" cy="244.986" r="18.6727" fill="#5E7ED9"/>
<circle cx="249.467" cy="301.004" r="18.6727" fill="#5E7ED9"/>
<circle cx="249.467" cy="357.022" r="18.6727" fill="#5E7ED9"/>
</svg>
