<svg width="717" height="717" viewBox="0 0 717 717" fill="none" xmlns="http://www.w3.org/2000/svg">
<path d="M303.627 232.1C327.817 188.7 339.917 167 358 167C376.083 167 388.183 188.7 412.373 232.1L418.633 243.328C425.509 255.661 428.947 261.827 434.305 265.895C439.667 269.963 446.343 271.477 459.689 274.495L471.846 277.245C518.827 287.874 542.316 293.189 547.902 311.162C553.494 329.135 537.478 347.858 505.452 385.313L497.163 395.001C488.062 405.645 483.511 410.964 481.468 417.549C479.419 424.134 480.107 431.229 481.482 445.43L482.733 458.361C487.575 508.326 490.001 533.314 475.365 544.421C460.735 555.527 438.741 545.399 394.753 525.149L383.375 519.906C370.874 514.152 364.623 511.272 358 511.272C351.377 511.272 345.127 514.152 332.626 519.906L321.247 525.149C277.26 545.399 255.265 555.527 240.633 544.421C226.002 533.314 228.423 508.326 233.266 458.361L234.518 445.43C235.894 431.229 236.582 424.134 234.535 417.549C232.488 410.964 227.937 405.645 218.836 395.001L210.55 385.313C178.522 347.858 162.508 329.135 168.097 311.162C173.685 293.189 197.175 287.874 244.155 277.245L256.309 274.495C269.658 271.477 276.333 269.963 281.696 265.895C287.053 261.827 290.491 255.661 297.367 243.328L303.627 232.1Z" stroke="#1E3A8A" stroke-width="50"/>
<path d="M191.667 69.594C240.696 41.2323 297.62 25 358.333 25C542.427 25 691.667 174.238 691.667 358.333C691.667 542.427 542.427 691.667 358.333 691.667C174.238 691.667 25 542.427 25 358.333C25 297.62 41.2323 240.696 69.594 191.667" stroke="#1E3A8A" stroke-width="50" stroke-linecap="round"/>
</svg>
